<svg width="280" height="192" viewBox="0 0 280 192" fill="none" xmlns="http://www.w3.org/2000/svg">
<g clip-path="url(#clip0)">
<path d="M106.005 182.056C106.005 187.034 82.6572 191.072 53.8555 191.072C25.0538 191.072 1.70581 187.034 1.70581 182.056C1.70581 180.811 3.16308 179.626 5.7998 178.549C13.476 175.408 31.1509 173.176 51.9255 173.047C52.5664 173.042 53.2097 173.039 53.8555 173.039C82.6572 173.039 106.005 177.077 106.005 182.056Z" fill="#3F3D56"/>
<path opacity="0.1" d="M51.9255 173.047C49.5887 176.856 46.4198 180.087 42.6563 182.498C38.8929 184.908 34.6325 186.436 30.1948 186.965C25.7571 187.494 21.257 187.012 17.0322 185.555C12.8073 184.097 8.9672 181.702 5.7998 178.549C13.476 175.408 31.1509 173.176 51.9255 173.047Z" fill="black"/>
<path d="M27.2933 182.3C42.367 182.3 54.5866 169.207 54.5866 153.057C54.5866 136.906 42.367 123.814 27.2933 123.814C12.2196 123.814 0 136.906 0 153.057C0 169.207 12.2196 182.3 27.2933 182.3Z" fill="#3F3D56"/>
<path d="M60.7828 20.3084C64.6526 35.2165 77.1366 44.8523 88.6946 41.8522L60.7828 20.3084Z" fill="#3F3D56"/>
<path d="M88.6946 41.8522C84.7813 26.7765 92.0517 11.8683 104.95 8.52028L88.6946 41.8522Z" fill="#00CE5A"/>
<path d="M68.71 19.6932C72.3858 33.8544 81.3243 43.7653 88.6946 41.8522L68.71 19.6932Z" fill="#00CE5A"/>
<path d="M88.6947 41.8522C83.6944 22.5888 91.7118 3.86977 106.62 0L88.6947 41.8522Z" fill="#3F3D56"/>
<path d="M84.345 43.1842C84.345 43.1842 87.2867 42.3231 88.0153 41.4547C88.7438 40.5863 92.2145 38.8743 92.7011 39.8374C93.1877 40.8005 98.4753 43.7569 95.1343 44.653C91.7933 45.549 87.2197 46.1508 86.1867 45.8389C85.1536 45.5271 84.345 43.1842 84.345 43.1842Z" fill="#A8A8A8"/>
<path opacity="0.2" d="M95.1018 44.2822C91.7609 45.1782 87.1872 45.78 86.1542 45.4681C85.3675 45.2307 84.7114 43.8162 84.443 43.1547C84.3809 43.1736 84.345 43.1842 84.345 43.1842C84.345 43.1842 85.1536 45.5271 86.1867 45.8389C87.2197 46.1508 91.7933 45.549 95.1343 44.653C96.0987 44.3943 96.3433 43.9638 96.1928 43.4593C96.1384 43.8018 95.8197 44.0896 95.1018 44.2822Z" fill="black"/>
<path d="M280 30.7243H83.5857V144.528H280V30.7243Z" fill="#F2F2F2"/>
<path opacity="0.3" d="M195.927 65.2673H88.2158V121.682H195.927V65.2673Z" fill="#00CE5A"/>
<path d="M247.414 62.808H204.212V65.1979H247.414V62.808Z" fill="#3F3D56"/>
<path d="M267.084 67.2201H204.212V69.6099H267.084V67.2201Z" fill="#3F3D56"/>
<path d="M247.414 77.8826H204.212V80.2725H247.414V77.8826Z" fill="#3F3D56"/>
<path d="M247.414 95.5309H204.212V97.9208H247.414V95.5309Z" fill="#3F3D56"/>
<path d="M267.084 82.2946H204.212V84.6845H267.084V82.2946Z" fill="#3F3D56"/>
<path d="M267.084 86.7067H204.212V89.0966H267.084V86.7067Z" fill="#3F3D56"/>
<path d="M267.084 91.1188H204.212V93.5087H267.084V91.1188Z" fill="#3F3D56"/>
<path d="M226.824 106.193H204.212V112.444H226.824V106.193Z" fill="#00CE5A"/>
<path d="M76.6375 99.4045C76.6375 99.4045 80.6966 87.9037 83.6282 91.5118C86.5598 95.1199 79.118 101.209 79.118 101.209L76.6375 99.4045Z" fill="#A0616A"/>
<path d="M57.4694 88.1292L59.9113 89.0341C59.9113 89.0341 61.0775 94.2179 60.6265 95.1199C60.1755 96.0219 59.95 95.3454 60.6265 97.1495C61.303 98.9535 63.3326 103.689 63.5581 104.366C63.7836 105.042 76.6375 100.081 76.6375 97.6005C76.6375 97.6005 79.3436 100.758 80.6966 101.434C80.6966 101.434 65.8132 112.258 63.7836 113.611C61.7541 114.964 60.6265 114.288 58.8225 112.709C57.0184 111.131 49.3512 98.0515 49.3512 98.0515L57.4694 88.1292Z" fill="#575A89"/>
<path d="M64.0091 168.184C64.0091 168.184 63.7836 170.665 63.3326 170.89C62.8816 171.116 59.499 176.753 63.3326 177.881C67.1662 179.008 69.4213 178.557 70.3233 179.008C71.2253 179.459 87.0108 180.361 87.2363 177.881C87.4618 175.4 79.5691 174.949 79.5691 174.949C79.5691 174.949 72.3529 170.214 71.2253 167.733C70.0978 165.252 64.0091 168.184 64.0091 168.184Z" fill="#2F2E41"/>
<path d="M18.2314 172.694C18.2314 172.694 12.8192 181.94 14.1722 183.068C15.5253 184.195 28.7023 188.304 30.6342 188.48C33.1148 188.705 34.9188 186.676 32.8893 185.548C30.8597 184.421 26.5751 179.685 26.5751 178.106V174.047L18.2314 172.694Z" fill="#2F2E41"/>
<path d="M13.0447 112.258C13.0447 112.258 8.30903 118.122 15.7507 127.593L28.1536 143.378C28.1536 143.378 20.4864 155.556 20.2609 161.87C20.0354 168.184 18.4568 166.831 18.0058 169.537C17.5548 172.243 15.5252 170.89 17.1038 172.92C18.6823 174.949 24.5455 176.753 26.3496 175.175C28.1536 173.596 28.1536 171.567 28.1536 170.665C28.1536 169.763 31.3107 164.576 31.5362 162.997C31.7617 161.419 40.1055 148.565 40.1055 148.565C40.1055 148.565 42.8116 140.898 39.6545 136.613C36.4974 132.328 34.4111 126.252 34.4111 126.252C34.4111 126.252 43.7136 137.515 50.2533 140.221C50.2533 140.221 52.7338 140.672 52.2828 141.8C51.8318 142.927 52.2828 143.604 52.9594 144.731C53.6359 145.859 58.3715 158.938 59.9501 162.321C61.5286 165.703 60.8521 167.733 62.6561 168.861C64.4602 169.988 72.5784 169.086 72.5784 167.959C72.5784 166.831 71.4509 163.899 70.7744 162.321C70.0979 160.742 64.6857 142.476 65.1367 139.319C65.5877 136.162 64.9112 131.877 61.5286 130.073C58.146 128.269 41.0075 113.611 40.1055 113.611C39.2034 113.611 13.0447 112.258 13.0447 112.258Z" fill="#2F2E41"/>
<path d="M58.3714 76.8539C63.6023 76.8539 67.8427 72.6134 67.8427 67.3826C67.8427 62.1517 63.6023 57.9113 58.3714 57.9113C53.1406 57.9113 48.9001 62.1517 48.9001 67.3826C48.9001 72.6134 53.1406 76.8539 58.3714 76.8539Z" fill="#A0616A"/>
<path d="M50.7042 68.2846C50.7042 68.2846 47.7726 73.4713 44.1645 74.1478C40.5564 74.8243 53.6358 85.1976 53.6358 85.1976C53.6358 85.1976 56.7929 75.2753 59.499 74.8243C62.2051 74.3733 50.7042 68.2846 50.7042 68.2846Z" fill="#A0616A"/>
<path d="M59.95 89.4822C59.95 92.4138 51.1552 100.758 51.1552 100.758L42.8115 107.748C42.8115 107.748 42.586 110.229 41.6839 110.454C40.7819 110.68 39.6544 110.68 40.5564 112.033C41.4584 113.386 43.7135 116.318 41.6839 116.769C41.0721 116.862 40.4555 116.92 39.837 116.944C39.2958 116.976 38.6599 117.005 37.945 117.032C36.2763 117.091 34.1881 117.129 31.9263 117.114C31.2835 117.111 30.6296 117.104 29.9644 117.091C21.4379 116.922 11.5607 115.941 12.3681 112.709C13.7211 107.297 12.8191 105.493 15.7507 102.562C18.6823 99.63 23.4179 89.4822 23.4179 89.4822C23.4179 89.4822 32.8892 73.4712 40.7819 73.4712L42.4213 73.0405C43.1831 72.8398 43.9887 72.8839 44.7241 73.1664C45.4594 73.4488 46.0873 73.9555 46.5188 74.6146C48.1018 77.0252 50.5982 80.6469 52.0572 81.815C54.3123 83.619 54.6641 82.3246 54.6641 82.3246C54.6641 82.3246 59.95 86.5506 59.95 89.4822Z" fill="#575A89"/>
<path d="M39.8799 123.759C39.8799 123.759 46.4196 133.907 42.3605 135.711C38.3013 137.515 36.0463 125.112 36.0463 125.112L39.8799 123.759Z" fill="#A0616A"/>
<path d="M52.1796 66.3128C52.5431 66.2669 52.6581 65.8083 52.7193 65.447C53.0469 63.5126 54.4885 61.6782 56.4255 61.3659C57.1659 61.2674 57.9187 61.3281 58.6338 61.5439C59.6581 61.8249 60.6196 62.2982 61.4671 62.9385C61.9145 63.2768 62.345 63.6695 62.8831 63.8276C63.2385 63.932 64.7475 64.6028 65.1001 64.7163C65.8753 64.9659 66.5168 65.7773 67.3151 65.6166C68.0789 65.4629 68.369 64.5406 68.4918 63.7712C68.7715 62.0184 67.7682 59.403 66.7707 57.9348C66.0137 56.8207 64.7327 56.1795 63.452 55.7623C61.9516 55.3069 60.4099 55.0006 58.8493 54.8478C56.7426 54.599 54.5607 54.467 52.5417 55.1182C50.5228 55.7693 48.6845 57.3623 48.3076 59.4499C48.2291 59.8848 48.2144 60.3302 48.1181 60.7615C47.8834 61.8136 47.1873 62.698 46.7812 63.6966C46.4882 64.4299 46.3522 65.2166 46.3819 66.0057C46.4116 66.7949 46.6064 67.5691 46.9536 68.2784C47.5159 69.4092 48.4938 70.4959 48.2828 71.7411L50.023 70.3689C50.2745 70.226 50.4693 70.0012 50.575 69.732C50.6807 69.4627 50.6909 69.1654 50.6039 68.8896L50.3509 66.7106C50.3046 66.3116 50.2642 65.8811 50.4637 65.5325C51.2372 64.1814 51.5736 66.3892 52.1796 66.3128Z" fill="#2F2E41"/>
<path opacity="0.1" d="M35.8208 108.199L37.9451 117.032C35.8027 117.109 32.9682 117.15 29.9644 117.091C29.2067 114.818 28.4828 112.448 27.9281 110.229C25.8985 102.111 29.2811 89.7077 31.0852 83.8446C32.8892 77.9814 37.3994 76.4028 37.3994 76.4028C37.3994 76.4028 39.6544 77.0794 42.586 79.1089C45.5176 81.1385 35.8208 108.199 35.8208 108.199Z" fill="black"/>
<path opacity="0.1" d="M37.6249 107.748L39.8371 116.944C39.2959 116.976 38.66 117.005 37.9451 117.032C36.2764 117.091 34.1882 117.129 31.9263 117.114C31.1123 114.698 30.3252 112.15 29.7321 109.778C27.7026 101.66 31.0852 89.2567 32.8892 83.3936C34.6933 77.5304 38.6397 83.9573 38.6397 83.9573C38.6397 83.9573 37.0611 80.1237 39.9927 82.1533C42.9243 84.1828 37.6249 107.748 37.6249 107.748Z" fill="black"/>
<path d="M38.3014 75.9518C38.3014 75.9518 33.7913 77.5304 31.9873 83.3936C30.1832 89.2567 26.8006 101.66 28.8302 109.778C30.8597 117.896 35.1443 128.044 35.1443 128.044C35.1443 128.044 39.429 124.887 41.0075 125.563L36.7229 107.748C36.7229 107.748 46.4197 80.6875 43.4881 78.6579C40.5565 76.6284 38.3014 75.9518 38.3014 75.9518Z" fill="#575A89"/>
<path d="M191.297 59.4188H83.5857V115.833H191.297V59.4188Z" fill="#3F3D56"/>
<path d="M139.445 100.941C146.177 100.941 151.634 95.4741 151.634 88.7303C151.634 81.9864 146.177 76.5193 139.445 76.5193C132.714 76.5193 127.256 81.9864 127.256 88.7303C127.256 95.4741 132.714 100.941 139.445 100.941Z" fill="white"/>
<path d="M139.445 74.4383C136.564 74.4383 133.748 75.2927 131.352 76.8933C128.957 78.494 127.09 80.769 125.987 83.4308C124.884 86.0926 124.596 89.0215 125.158 91.8472C125.72 94.673 127.108 97.2686 129.145 99.3058C131.182 101.343 133.778 102.73 136.603 103.292C139.429 103.855 142.358 103.566 145.02 102.464C147.682 101.361 149.957 99.4939 151.557 97.0984C153.158 94.7028 154.012 91.8864 154.012 89.0054C154.001 85.1454 152.463 81.4468 149.733 78.7174C147.004 75.988 143.305 74.4496 139.445 74.4383ZM136.455 96.7721L128.989 89.3065L131.083 87.2125L136.462 92.5911L147.814 81.2386L149.908 83.3326L136.455 96.7721Z" fill="#00CE5A"/>
</g>
<defs>
<clipPath id="clip0">
<rect width="280" height="191.072" fill="white"/>
</clipPath>
</defs>
</svg>
