<svg width="260" height="268" viewBox="0 0 260 268" fill="none" xmlns="http://www.w3.org/2000/svg">
<g clipPath="url(#clip0)">
<path d="M212.926 73.7685C212.926 73.7685 208.053 76.5863 209.552 80.5312C209.552 80.5312 214.613 82.034 216.675 85.7911C218.737 89.5481 234.67 103.073 234.67 103.073L246.291 97.2501C246.291 97.2501 242.248 91.8413 229.462 88.0648C229.462 88.0648 221.924 79.9676 219.299 78.4648C216.675 76.962 212.926 73.7685 212.926 73.7685Z" fill="#CBCDDA"/>
<path opacity="0.05" d="M212.926 73.7685C212.926 73.7685 208.053 76.5863 209.552 80.5312C209.552 80.5312 214.613 82.034 216.675 85.7911C218.737 89.5481 234.67 103.073 234.67 103.073L246.291 97.2501C246.291 97.2501 242.248 91.8413 229.462 88.0648C229.462 88.0648 221.924 79.9676 219.299 78.4648C216.675 76.962 212.926 73.7685 212.926 73.7685Z" fill="black"/>
<path opacity="0.1" d="M44.4325 253.592C41.9302 254.212 39.3126 253.489 36.7352 253.458C34.1578 253.427 31.1507 254.513 30.5191 257.017C29.6706 260.381 33.5943 262.917 36.9539 263.755C49.9933 267.008 63.7964 262.786 77.1233 264.508C82.7392 265.234 88.2006 267.009 93.8473 267.433C106.772 268.402 119.4 262.242 132.342 262.936C138.826 263.284 145.128 265.347 151.613 265.678C167.128 266.471 182.435 257.342 197.624 260.613C201.913 261.537 205.94 263.42 210.19 264.51C220.934 267.267 232.245 264.81 243.061 262.351C245.208 261.863 247.797 260.913 248.062 258.722C248.354 256.304 245.584 254.788 243.28 254.016C218.079 245.569 191.098 241.094 164.813 244.998C158.831 245.887 152.867 247.207 146.82 247.12C133.438 246.927 121.14 239.93 108.002 237.371C83.1073 232.522 58.2167 243.835 35.363 254.853" fill="#00CE5A"/>
<path d="M78.9364 181.917H71.3153V246.491C71.3153 246.491 120.506 262.461 168.311 246.491V181.917H78.9364Z" fill="#3F3D56"/>
<path d="M119.12 189.555C145.522 189.555 166.925 186.291 166.925 182.264C166.925 178.238 145.522 174.974 119.12 174.974C92.7184 174.974 71.3154 178.238 71.3154 182.264C71.3154 186.291 92.7184 189.555 119.12 189.555Z" fill="#3F3D56"/>
<path opacity="0.1" d="M119.12 189.555C145.522 189.555 166.925 186.291 166.925 182.264C166.925 178.238 145.522 174.974 119.12 174.974C92.7184 174.974 71.3154 178.238 71.3154 182.264C71.3154 186.291 92.7184 189.555 119.12 189.555Z" fill="black"/>
<path d="M174.691 104.766C162.631 149.443 121.324 177.113 121.324 177.113C121.324 177.113 99.5696 132.347 111.629 87.6697C123.689 42.9927 164.996 15.323 164.996 15.323C164.996 15.323 186.75 60.0892 174.691 104.766Z" fill="#3F3D56"/>
<path d="M64.9816 104.766C77.0412 149.443 118.348 177.113 118.348 177.113C118.348 177.113 140.103 132.347 128.043 87.6697C115.983 42.9927 74.6764 15.323 74.6764 15.323C74.6764 15.323 52.9219 60.0892 64.9816 104.766Z" fill="#00CE5A"/>
<path d="M82.7024 95.1647C115.794 127.449 119.836 177.077 119.836 177.077C119.836 177.077 70.2256 174.362 37.1338 142.078C4.04193 109.794 0 60.1661 0 60.1661C0 60.1661 49.6105 62.8808 82.7024 95.1647Z" fill="#3F3D56"/>
<path d="M156.97 95.1647C123.878 127.449 119.836 177.077 119.836 177.077C119.836 177.077 169.447 174.362 202.538 142.078C235.63 109.794 239.672 60.1661 239.672 60.1661C239.672 60.1661 190.062 62.8808 156.97 95.1647Z" fill="#3F3D56"/>
<path d="M119.813 30.551C128.231 30.551 135.055 23.7119 135.055 15.2755C135.055 6.83907 128.231 0 119.813 0C111.395 0 104.571 6.83907 104.571 15.2755C104.571 23.7119 111.395 30.551 119.813 30.551Z" fill="#00CE5A"/>
<path d="M28.539 123.453C29.6198 127.384 33.3746 129.775 33.3746 129.775C33.3746 129.775 35.3772 125.794 34.2964 121.863C33.2157 117.933 29.4609 115.542 29.4609 115.542C29.4609 115.542 27.4583 119.523 28.539 123.453Z" fill="#00CE5A"/>
<path d="M48.7681 145.342C47.6048 149.248 49.523 153.271 49.523 153.271C49.523 153.271 53.3274 150.96 54.4907 147.053C55.654 143.147 53.7357 139.124 53.7357 139.124C53.7357 139.124 49.9314 141.435 48.7681 145.342Z" fill="#00CE5A"/>
<path d="M194.679 170.472C191.823 173.375 191.636 177.83 191.636 177.83C191.636 177.83 196.077 177.576 198.932 174.673C201.788 171.769 201.975 167.314 201.975 167.314C201.975 167.314 197.534 167.568 194.679 170.472Z" fill="#00CE5A"/>
<path d="M243.292 234.007C243.292 234.007 243.855 242.272 244.792 243.212C245.729 244.151 236.357 244.714 236.357 244.714L237.669 234.007H243.292Z" fill="#FFB9B9"/>
<path opacity="0.05" d="M243.292 234.007C243.292 234.007 243.855 242.272 244.792 243.212C245.729 244.151 236.357 244.714 236.357 244.714L237.669 234.007H243.292Z" fill="black"/>
<path d="M245.354 240.394C245.354 240.394 244.042 240.394 239.356 242.836C239.356 242.836 236.169 242.272 234.857 237.764C234.857 237.764 230.921 244.527 228.297 244.902C225.673 245.278 220.612 245.654 223.986 250.162C227.36 254.671 247.228 252.604 247.228 252.604C247.228 252.604 247.791 241.709 245.354 240.394Z" fill="#CBCDDA"/>
<path opacity="0.05" d="M245.354 240.394C245.354 240.394 244.042 240.394 239.356 242.836C239.356 242.836 236.169 242.272 234.857 237.764C234.857 237.764 230.921 244.527 228.297 244.902C225.673 245.278 220.612 245.654 223.986 250.162C227.36 254.671 247.228 252.604 247.228 252.604C247.228 252.604 247.791 241.709 245.354 240.394Z" fill="black"/>
<path d="M242.542 246.781L241.23 250.35L232.608 247.908L233.099 244.365L233.217 243.51L233.545 241.145C233.545 241.145 240.855 239.267 240.855 240.206C240.954 240.98 241.114 241.746 241.335 242.494C241.635 243.649 242.012 244.966 242.265 245.832C242.43 246.405 242.542 246.781 242.542 246.781Z" fill="#FFB9B9"/>
<path d="M237.838 197.789C237.247 198.79 236.578 200.669 237.821 203.017C238.189 203.696 238.642 204.325 239.168 204.89C243.292 209.398 244.417 219.542 244.417 219.542V235.885L241.605 236.101L237.107 236.449L230.359 208.647C230.359 208.647 226.422 188.359 228.297 184.789C230.171 181.22 231.858 158.866 231.858 158.866L233.414 157.25L237.107 153.418H247.791C248.646 154.033 249.355 154.828 249.87 155.747C251.663 158.723 253.274 164.911 248.353 176.336C240.668 194.182 238.419 197 238.419 197C238.196 197.24 238.001 197.505 237.838 197.789Z" fill="#4C4C78"/>
<path opacity="0.05" d="M237.838 197.789C237.247 198.79 236.578 200.669 237.821 203.017C238.189 203.696 238.642 204.325 239.168 204.89C243.292 209.398 244.417 219.542 244.417 219.542V235.885L241.605 236.101L237.107 236.449L230.359 208.647C230.359 208.647 226.422 188.359 228.297 184.789C230.171 181.22 231.858 158.866 231.858 158.866L233.414 157.25L237.107 153.418H247.791C248.646 154.033 249.355 154.828 249.87 155.747C251.663 158.723 253.274 164.911 248.353 176.336C240.668 194.182 238.419 197 238.419 197C238.196 197.24 238.001 197.505 237.838 197.789Z" fill="black"/>
<path opacity="0.1" d="M241.335 242.494L233.217 243.51L233.545 241.145C233.545 241.145 240.855 239.267 240.855 240.206C240.954 240.98 241.114 241.746 241.335 242.494Z" fill="black"/>
<path d="M237.294 173.706C237.294 173.706 237.761 188.494 237.838 197.789C237.854 199.891 237.853 201.713 237.821 203.017C237.831 203.707 237.781 204.397 237.669 205.078C237.107 206.768 238.231 210.525 238.231 210.525C242.917 222.924 241.605 233.819 241.605 233.819V242.085L232.608 243.212C232.608 243.212 234.107 242.085 229.984 231.189C227.614 224.93 227.101 218.796 227.093 214.709C227.071 212.471 226.625 210.259 225.777 208.188C225.518 207.49 225.356 206.76 225.298 206.017C224.923 202.26 223.236 197.563 223.236 197.563C223.236 197.563 218.737 184.226 217.612 174.458C217.093 169.808 217.18 165.11 217.873 160.483C218.039 159.307 218.265 158.14 218.55 156.987C218.55 156.987 236.874 145.431 243.793 153.418C244.458 154.199 244.986 155.089 245.354 156.048C245.734 156.996 246.03 157.975 246.239 158.975C248.392 169.575 237.294 173.706 237.294 173.706Z" fill="#4C4C78"/>
<path d="M236.732 91.4266C242.011 91.4266 246.291 87.1373 246.291 81.8461C246.291 76.555 242.011 72.2657 236.732 72.2657C231.452 72.2657 227.172 76.555 227.172 81.8461C227.172 87.1373 231.452 91.4266 236.732 91.4266Z" fill="#FFB9B9"/>
<path d="M231.483 87.8574C231.483 87.8574 235.42 98.9408 231.483 104.764C227.547 110.588 244.042 108.709 244.042 108.709L250.415 101.007C250.415 101.007 242.917 101.007 242.542 87.8574C242.168 74.7078 231.483 87.8574 231.483 87.8574Z" fill="#FFB9B9"/>
<path opacity="0.1" d="M250.415 157.927C249.056 158.398 247.659 158.748 246.239 158.975C243.905 159.335 241.152 159.349 239.543 157.927C238.589 157.083 236.239 156.98 233.414 157.25C227.464 157.821 219.412 160.046 217.873 160.483C218.039 159.307 218.265 158.14 218.55 156.987C218.55 156.987 236.874 145.431 243.793 153.418H247.791C248.646 154.033 249.355 154.828 249.87 155.747C250.214 157.243 250.415 157.927 250.415 157.927Z" fill="black"/>
<path opacity="0.1" d="M242.542 246.781L241.23 250.35L232.608 247.908L233.099 244.365C234.58 247.649 237.107 248.096 237.107 248.096C239.832 246.676 241.416 246.082 242.265 245.832C242.43 246.405 242.542 246.781 242.542 246.781Z" fill="black"/>
<path d="M243.105 245.842C243.105 245.842 241.793 245.842 237.107 248.284C237.107 248.284 233.92 247.72 232.608 243.212C232.608 243.212 228.672 249.974 226.047 250.35C223.423 250.726 218.362 251.101 221.736 255.61C225.11 260.118 244.979 258.052 244.979 258.052C244.979 258.052 245.541 247.157 243.105 245.842Z" fill="#CBCDDA"/>
<path d="M198.635 83.681C198.635 83.681 199 76.3646 206.673 77.0806C206.888 77.101 207.094 77.1742 207.274 77.2937C207.454 77.4132 207.601 77.5753 207.704 77.7656C207.806 77.9559 207.86 78.1686 207.861 78.3848C207.861 78.6011 207.809 78.8141 207.708 79.0051L206.135 81.9727L198.635 83.681Z" fill="#FFB9B9"/>
<path d="M242.917 103.261C242.917 103.261 233.733 101.759 231.296 99.88C231.296 99.88 229.421 103.449 226.047 101.571C222.673 99.6922 214.801 99.88 214.801 99.88C214.801 99.88 208.24 96.3108 206.928 88.2331C206.928 88.2331 205.616 83.349 205.991 82.034C205.991 82.034 201.117 76.962 198.681 83.7247C199.618 88.421 200.368 88.0453 200.18 91.8023L203.179 100.068C203.179 100.068 203.367 102.886 208.803 106.643C214.239 110.4 220.424 116.223 220.424 116.223C220.424 116.223 217.144 118.008 218.362 126.179C219.851 136.167 217.612 150.412 217.612 150.412V159.617C217.612 159.617 236.357 154.169 239.543 156.987C242.73 159.805 250.415 156.987 250.415 156.987C250.415 156.987 249.478 153.794 248.166 146.092C246.854 138.39 248.353 130.876 248.353 130.876C248.353 130.876 253.227 117.914 255.476 112.654C257.725 107.394 253.789 100.256 249.853 97.6258C245.916 94.9958 244.45 96.5748 244.45 96.5748C244.45 96.5748 251.352 101.571 242.917 103.261Z" fill="#CBCDDA"/>
<path opacity="0.1" d="M226.393 79.5032C226.39 79.8942 226.456 80.2827 226.587 80.6508C226.806 81.0698 227.105 81.4416 227.466 81.7455C228.87 83.1202 230.102 84.7539 230.595 86.6575C230.93 87.9464 230.912 89.2971 230.892 90.6286C230.81 96.0224 230.585 101.844 227.26 106.087C226.039 107.646 224.468 108.886 222.992 110.206C222.786 110.357 222.63 110.567 222.543 110.808C222.503 111.064 222.552 111.327 222.683 111.551C223.368 112.979 224.812 113.855 226.18 114.649C226.805 115.013 227.464 115.386 228.186 115.409C229.89 115.465 231.016 113.66 232.568 112.951C234.825 111.917 237.36 113.355 239.601 114.425C241.224 115.199 242.927 115.794 244.678 116.199C247.077 116.754 249.79 116.89 251.81 115.479C252.978 114.655 253.775 113.404 254.031 111.996C254.194 111.078 254.168 110.012 254.862 109.391C255.219 109.07 255.706 108.937 256.093 108.654C256.692 108.213 256.978 107.473 257.233 106.773L259.542 100.446C259.84 99.7777 259.994 99.0535 259.993 98.3213C259.882 96.7979 258.48 95.6919 257.073 95.1062C255.665 94.5205 254.108 94.2317 252.87 93.3404C250.777 91.8332 250.131 89.0186 249.943 86.4425C249.814 84.6733 249.827 82.8965 249.981 81.1293C250.21 78.5086 250.721 75.718 249.558 73.3597C248.315 70.841 245.528 69.555 242.947 68.4577C241.956 68.0363 240.938 67.6087 239.863 67.5611C238.725 67.5108 237.616 67.8898 236.54 68.2638C234.83 68.8582 233.094 69.6278 231.329 70.0309C230.337 70.2574 229.25 70.0879 228.293 70.4475C224.778 71.7687 226.393 76.6672 226.393 79.5032Z" fill="black"/>
<path d="M226.393 79.1275C226.39 79.5185 226.456 79.907 226.587 80.2751C226.806 80.6941 227.105 81.066 227.466 81.3698C228.87 82.7445 230.102 84.3782 230.595 86.2819C230.93 87.5707 230.912 88.9214 230.892 90.253C230.81 95.6467 230.585 101.469 227.26 105.711C226.039 107.271 224.468 108.511 222.992 109.83C222.786 109.982 222.63 110.191 222.543 110.432C222.503 110.689 222.552 110.951 222.683 111.175C223.368 112.603 224.812 113.479 226.18 114.274C226.805 114.637 227.464 115.01 228.186 115.034C229.89 115.089 231.016 113.285 232.568 112.575C234.825 111.542 237.36 112.98 239.601 114.049C241.224 114.823 242.927 115.419 244.678 115.824C247.077 116.378 249.79 116.515 251.81 115.104C252.978 114.279 253.775 113.028 254.031 111.62C254.194 110.702 254.168 109.636 254.862 109.015C255.219 108.695 255.706 108.562 256.093 108.278C256.692 107.838 256.978 107.097 257.233 106.398L259.542 100.071C259.84 99.402 259.994 98.6779 259.993 97.9456C259.882 96.4222 258.48 95.3162 257.073 94.7305C255.665 94.1448 254.108 93.856 252.87 92.9647C250.777 91.4575 250.131 88.6429 249.943 86.0668C249.814 84.2976 249.827 82.5209 249.981 80.7537C250.21 78.1329 250.721 75.3423 249.558 72.984C248.315 70.4653 245.528 69.1793 242.947 68.082C241.956 67.6607 240.938 67.233 239.863 67.1854C238.725 67.1351 237.616 67.5141 236.54 67.8881C234.83 68.4825 233.094 69.2521 231.329 69.6552C230.337 69.8817 229.25 69.7123 228.293 70.0718C224.778 71.393 226.393 76.2915 226.393 79.1275Z" fill="#B96B6B"/>
<path opacity="0.05" d="M218.835 130.393C218.835 130.393 220.33 130.03 227.828 128.903C235.326 127.776 248.447 130.406 248.447 130.406" fill="black"/>
<path d="M12.8111 161.283C13.8919 165.213 17.6467 167.604 17.6467 167.604C17.6467 167.604 19.6493 163.623 18.5685 159.693C17.4878 155.762 13.733 153.371 13.733 153.371C13.733 153.371 11.7304 157.353 12.8111 161.283Z" fill="#00CE5A"/>
</g>
<defs>
<clipPath id="clip0">
<rect width="260" height="267.536" fill="white"/>
</clipPath>
</defs>
</svg>
