<svg width="18" height="21" viewBox="0 0 18 21" fill="none" xmlns="http://www.w3.org/2000/svg">
<path d="M7.27468 13.997C8.61402 13.997 9.89851 13.4702 10.8456 12.5325C11.7926 11.5949 12.3247 10.3231 12.3247 8.997C12.3247 7.67092 11.7926 6.39915 10.8456 5.46147C9.89851 4.52378 8.61402 3.997 7.27468 3.997C5.93534 3.997 4.65085 4.52378 3.70379 5.46147C2.75673 6.39915 2.22468 7.67092 2.22468 8.997C2.22468 10.3231 2.75673 11.5949 3.70379 12.5325C4.65085 13.4702 5.93534 13.997 7.27468 13.997ZM13.3478 5.411C13.9439 6.40092 14.284 7.52122 14.3379 8.67249C14.3918 9.82376 14.1578 10.9704 13.6567 12.0107C13.1557 13.0509 12.403 13.9527 11.4656 14.6359C10.5281 15.319 9.43478 15.7625 8.28266 15.927L8.28468 15.997V16.997H9.29468C9.56255 16.997 9.81945 17.1024 10.0089 17.2899C10.1983 17.4774 10.3047 17.7318 10.3047 17.997C10.3047 18.2622 10.1983 18.5166 10.0089 18.7041C9.81945 18.8916 9.56255 18.997 9.29468 18.997H8.28468V19.997C8.28468 20.2622 8.17827 20.5166 7.98886 20.7041C7.79945 20.8916 7.54255 20.997 7.27468 20.997C7.00681 20.997 6.74992 20.8916 6.5605 20.7041C6.37109 20.5166 6.26468 20.2622 6.26468 19.997V18.997H5.25468C4.98681 18.997 4.72992 18.8916 4.5405 18.7041C4.35109 18.5166 4.24468 18.2622 4.24468 17.997C4.24468 17.7318 4.35109 17.4774 4.5405 17.2899C4.72992 17.1024 4.98681 16.997 5.25468 16.997H6.26468V15.997C6.26468 15.973 6.26468 15.95 6.2667 15.927C4.50042 15.6708 2.89736 14.7626 1.77919 13.3848C0.661029 12.0071 0.110495 10.2616 0.238063 8.49861C0.36563 6.73566 1.16186 5.0857 2.46698 3.87981C3.7721 2.67392 5.48954 2.00133 7.27468 1.997C9.05089 1.99486 10.7625 2.65663 12.0671 3.85L13.9356 2H12.3348C12.0669 2 11.81 1.89464 11.6206 1.70711C11.4312 1.51957 11.3248 1.26522 11.3248 1C11.3248 0.734784 11.4312 0.48043 11.6206 0.292893C11.81 0.105357 12.0669 0 12.3348 0H16.3748C16.6426 0 16.8995 0.105357 17.089 0.292893C17.2784 0.48043 17.3848 0.734784 17.3848 1V5C17.3848 5.26522 17.2784 5.51957 17.089 5.70711C16.8995 5.89464 16.6426 6 16.3748 6C16.1069 6 15.85 5.89464 15.6606 5.70711C15.4712 5.51957 15.3648 5.26522 15.3648 5V3.414L13.3488 5.411H13.3478Z" fill="url(#paint0_linear)"/>
<defs>
<linearGradient id="paint0_linear" x1="8.80238" y1="0" x2="8.80238" y2="20.997" gradientUnits="userSpaceOnUse">
<stop stop-color="#7000FF"/>
<stop offset="1" stop-color="#BD13F9" stop-opacity="0.71"/>
</linearGradient>
</defs>
</svg>
