<svg width="21" height="20" viewBox="0 0 21 20" fill="#B2B2B2" xmlns="http://www.w3.org/2000/svg">
<path d="M19.743 10.331L10.743 0.331026C10.364 -0.0909736 9.63601 -0.0909736 9.25701 0.331026L0.257014 10.331C0.127471 10.4746 0.042439 10.6528 0.0122586 10.8438C-0.0179218 11.0348 0.00804926 11.2305 0.0870142 11.407C0.247014 11.768 0.605014 12 1.00001 12H3.00001V19C3.00001 19.2652 3.10537 19.5196 3.29291 19.7071C3.48044 19.8947 3.7348 20 4.00001 20H7.00001C7.26523 20 7.51958 19.8947 7.70712 19.7071C7.89466 19.5196 8.00001 19.2652 8.00001 19V15H12V19C12 19.2652 12.1054 19.5196 12.2929 19.7071C12.4804 19.8947 12.7348 20 13 20H16C16.2652 20 16.5196 19.8947 16.7071 19.7071C16.8947 19.5196 17 19.2652 17 19V12H19C19.1937 12.0009 19.3834 11.9453 19.546 11.8402C19.7087 11.735 19.8372 11.5848 19.916 11.4079C19.9948 11.231 20.0203 11.035 19.9896 10.8438C19.9589 10.6525 19.8732 10.4744 19.743 10.331Z"/>
</svg>
