<svg width="280" height="228" viewBox="0 0 280 228" fill="none" xmlns="http://www.w3.org/2000/svg">
<g clip-path="url(#clip0)">
<path d="M279.861 226.356H0V226.953H279.861V226.356Z" fill="#3F3D56"/>
<path d="M141.674 61.5414H140.48V28.848C140.48 26.3631 139.991 23.9025 139.04 21.6068C138.089 19.3111 136.695 17.2251 134.938 15.468C133.181 13.711 131.095 12.3172 128.8 11.3662C126.504 10.4153 124.043 9.92587 121.558 9.92587H52.2929C49.8081 9.92587 47.3475 10.4153 45.0518 11.3662C42.7561 12.3171 40.6701 13.7109 38.913 15.468C37.1559 17.2251 35.7621 19.311 34.8112 21.6067C33.8603 23.9025 33.3709 26.363 33.3708 28.8479V208.207C33.3708 213.225 35.3644 218.038 38.913 221.587C42.4615 225.135 47.2744 227.129 52.2929 227.129H121.558C126.577 227.129 131.39 225.135 134.938 221.587C138.487 218.038 140.48 213.225 140.48 208.207V84.8131H141.674L141.674 61.5414Z" fill="#3F3D56"/>
<path d="M136.454 28.9799V208.075C136.454 211.823 134.965 215.417 132.315 218.067C129.665 220.717 126.07 222.206 122.323 222.206H52.7218C50.8662 222.206 49.0288 221.84 47.3145 221.13C45.6002 220.42 44.0426 219.379 42.7307 218.067C41.4187 216.755 40.3781 215.197 39.6682 213.482C38.9583 211.768 38.5931 209.93 38.5934 208.075V28.9799C38.5931 27.1243 38.9583 25.2868 39.6682 23.5724C40.3781 21.8579 41.4187 20.3001 42.7307 18.9879C44.0426 17.6756 45.6002 16.6347 47.3145 15.9244C49.0288 15.2142 50.8662 14.8486 52.7218 14.8485H61.1679C60.7514 15.8679 60.5922 16.9741 60.7043 18.0696C60.8165 19.1651 61.1964 20.2162 61.8107 21.1301C62.425 22.044 63.2548 22.7927 64.2268 23.3102C65.1989 23.8277 66.2833 24.098 67.3845 24.0973H107.066C108.167 24.0979 109.251 23.8275 110.223 23.3099C111.195 22.7923 112.025 22.0435 112.639 21.1296C113.253 20.2156 113.632 19.1645 113.744 18.0691C113.856 16.9737 113.696 15.8676 113.28 14.8485H122.323C126.07 14.8485 129.665 16.3374 132.315 18.9876C134.965 21.6377 136.454 25.2321 136.454 28.9799Z" fill="white"/>
<path d="M70.0526 62.9551C80.2719 62.9551 88.5563 54.6707 88.5563 44.4514C88.5563 34.2321 80.2719 25.9477 70.0526 25.9477C59.8333 25.9477 51.549 34.2321 51.549 44.4514C51.549 54.6707 59.8333 62.9551 70.0526 62.9551Z" fill="#FF6584"/>
<path d="M116.861 133.117C118.218 119.348 113.849 107.648 107.101 106.982C100.353 106.317 93.7821 116.939 92.4246 130.707C91.067 144.476 95.4368 156.177 102.185 156.842C108.933 157.507 115.503 146.885 116.861 133.117Z" fill="#3F3D56"/>
<path d="M101.748 172.83C99.749 142.987 107.478 114.211 107.556 113.924L108.492 114.179C108.414 114.465 100.728 143.09 102.716 172.765L101.748 172.83Z" fill="#00CE5A"/>
<path d="M115.928 127.612L104.297 132.432L104.668 133.329L116.3 128.508L115.928 127.612Z" fill="#00CE5A"/>
<path d="M93.383 128.379L92.8434 129.186L103.308 136.188L103.847 135.381L93.383 128.379Z" fill="#00CE5A"/>
<path d="M102.974 92.9264C105.629 65.9971 97.0826 43.1117 83.8846 41.8104C70.6866 40.5091 57.835 61.2847 55.1799 88.2141C52.5247 115.143 61.0714 138.029 74.2695 139.33C87.4675 140.631 100.319 119.856 102.974 92.9264Z" fill="#E6E6E6"/>
<path d="M73.8771 170.569C69.9732 112.278 85.0689 56.0707 85.2218 55.5098L86.1578 55.7649C86.0053 56.3244 70.9525 112.38 74.8451 170.504L73.8771 170.569Z" fill="#3F3D56"/>
<path d="M101.328 82.5879L78.5781 92.0161L78.9496 92.9124L101.699 83.4843L101.328 82.5879Z" fill="#3F3D56"/>
<path d="M56.7959 84.0439L56.2563 84.8503L76.7229 98.5454L77.2625 97.739L56.7959 84.0439Z" fill="#3F3D56"/>
<path d="M171.27 70.0276C174.904 33.1769 163.208 1.86001 145.148 0.079298C127.087 -1.70141 109.501 26.7284 105.868 63.579C102.234 100.43 113.93 131.747 131.99 133.527C150.051 135.308 167.637 106.878 171.27 70.0276Z" fill="#00CE5A"/>
<path d="M131.632 176.263C126.292 96.526 146.941 19.6401 147.15 18.8729L148.086 19.128C147.877 19.8938 127.271 96.6287 132.6 176.199L131.632 176.263Z" fill="#3F3D56"/>
<path d="M169.086 56.0451L137.955 68.9468L138.326 69.8432L169.458 56.9415L169.086 56.0451Z" fill="#3F3D56"/>
<path d="M107.98 58.021L107.44 58.8274L135.447 77.5678L135.987 76.7614L107.98 58.021Z" fill="#3F3D56"/>
<path d="M38.5934 175.26L37.9965 208.836C37.9965 216.78 44.9174 223.221 52.7218 223.221H122.323C130.127 223.221 137.051 216.78 137.051 208.836L136.454 175.555C101.365 161.954 68.9188 162.807 38.5934 175.26Z" fill="#00CE5A"/>
<path d="M187.075 58.5182L190.78 55.5551C187.902 55.2376 186.719 56.8072 186.235 58.0496C183.987 57.116 181.539 58.3396 181.539 58.3396L188.952 61.0306C188.578 60.0318 187.927 59.1602 187.075 58.5182Z" fill="#3F3D56"/>
<path d="M96.5256 32.3595L100.23 29.3964C97.3523 29.0788 96.1698 30.6485 95.6858 31.8909C93.4373 30.9572 90.9896 32.1808 90.9896 32.1808L98.4022 34.8718C98.0282 33.873 97.3772 33.0015 96.5256 32.3595Z" fill="#3F3D56"/>
<path d="M244.222 20.6886L247.927 17.7255C245.049 17.408 243.866 18.9777 243.382 20.22C241.134 19.2864 238.686 20.51 238.686 20.51L246.099 23.201C245.725 22.2022 245.074 21.3307 244.222 20.6886Z" fill="#3F3D56"/>
<path d="M238.365 156.973L238.302 162.02C238.296 162.508 238.182 162.987 237.968 163.425C237.754 163.863 237.446 164.248 237.065 164.552C236.685 164.856 236.242 165.073 235.768 165.185C235.293 165.297 234.8 165.303 234.324 165.202C233.835 165.098 233.377 164.885 232.983 164.578C232.589 164.271 232.27 163.878 232.05 163.43C231.83 162.982 231.715 162.489 231.714 161.99C231.712 161.491 231.824 160.997 232.041 160.548L233.728 157.051L237.225 131.676L235.883 114.719L242.448 114.405L243.844 133.8L238.365 156.973Z" fill="#FFB9B9"/>
<path d="M206.198 183.79L199.886 217.778L203.042 217.292L214.695 183.062L206.198 183.79Z" fill="#FFB9B9"/>
<path d="M236.423 184.154L240.429 218.992L243.828 218.506L244.677 183.912L236.423 184.154Z" fill="#FFB9B9"/>
<path d="M272.353 173.958C263.304 181.228 252.708 191.905 242.158 187.928C231.15 183.777 218.444 183.514 204.135 185.368C207.553 163.931 211.773 143.647 217.244 125.162L235.452 128.075C235.734 128.386 235.054 130.07 235.331 130.381C240.449 136.145 245.669 140.612 248.823 146.549C253.471 155.384 259.761 163.252 267.357 169.731L272.353 173.958Z" fill="#E6E6E6"/>
<path opacity="0.5" d="M280 177.721C270.951 185.196 251.98 197.676 241.43 193.586C230.421 189.318 217.352 189.652 203.042 191.559C203.721 187.179 204.446 182.828 205.215 178.504C208.317 161.085 264.85 167.203 272.474 173.837L280 177.721Z" fill="#E6E6E6"/>
<path d="M243.559 115.492C240.155 114.496 236.685 114.99 233.168 116.519L234.442 106.947C234.313 105.892 234.608 104.83 235.262 103.993C235.917 103.156 236.877 102.613 237.931 102.484C238.986 102.355 240.048 102.65 240.885 103.305C241.722 103.959 242.265 104.919 242.394 105.973L243.559 115.492Z" fill="#2F2E41"/>
<path d="M228.048 95.4225C231.802 95.4225 234.845 92.3791 234.845 88.6249C234.845 84.8708 231.802 81.8274 228.048 81.8274C224.293 81.8274 221.25 84.8708 221.25 88.6249C221.25 92.3791 224.293 95.4225 228.048 95.4225Z" fill="#FFB9B9"/>
<path d="M240.671 107.561L225.741 104.041C227.958 100.854 227.504 97.1198 225.741 93.1162L233.024 91.6596C233.83 94.4228 234.808 96.9515 236.18 98.9426L240.671 107.561Z" fill="#FFB9B9"/>
<path d="M235.452 129.046L217.002 126.375L217.615 122.92C217.324 113.918 218.808 106.55 221.614 100.399L237.88 101.37C239.966 103.04 241.441 105.353 242.073 107.949C242.706 110.545 242.46 113.278 241.375 115.72L235.695 126.861L235.452 129.046Z" fill="#2F2E41"/>
<path d="M203.471 226.544C202.619 226.932 201.906 223.784 201.188 224.49C199.179 226.464 196.103 226.894 193.422 226.032L194.36 226.021C194.198 225.969 194.049 225.885 193.92 225.774C193.792 225.662 193.688 225.526 193.614 225.373C193.54 225.22 193.498 225.053 193.49 224.883C193.482 224.714 193.509 224.544 193.568 224.385C193.64 224.195 193.756 224.024 193.908 223.889C194.06 223.753 194.242 223.657 194.44 223.608L196.576 223.074L199.931 217.174L203.586 216.712L203.679 216.863C204.385 218.002 204.841 219.278 205.015 220.607C205.189 221.937 205.078 223.288 204.689 224.57C204.385 225.544 203.971 226.315 203.471 226.544Z" fill="#2F2E41"/>
<path d="M243.77 226.544C242.919 226.932 242.206 223.784 241.487 224.49C239.479 226.464 236.402 226.894 233.721 226.032L234.66 226.021C234.498 225.969 234.348 225.885 234.22 225.774C234.092 225.662 233.987 225.526 233.913 225.373C233.839 225.22 233.797 225.053 233.789 224.883C233.782 224.714 233.808 224.544 233.868 224.385C233.939 224.195 234.056 224.024 234.208 223.889C234.36 223.753 234.542 223.657 234.739 223.608L236.876 223.074L240.23 217.174L243.886 216.712L243.978 216.863C244.685 218.002 245.141 219.278 245.315 220.607C245.489 221.937 245.378 223.288 244.988 224.57C244.684 225.544 244.271 226.315 243.77 226.544Z" fill="#2F2E41"/>
<path d="M236.508 117.272H236.334C233.052 114.427 230.199 111.238 232.503 107.246C230.549 102.287 228.37 97.1372 228.502 93.9513C228.64 91.5956 227.882 89.275 226.38 87.4554C224.303 85.0301 223.841 83.9469 220.049 84.8641C220.036 83.8903 220.22 82.9238 220.592 82.0235C220.963 81.1232 221.514 80.3078 222.21 79.6269C222.907 78.9459 223.734 78.4137 224.643 78.0625C225.551 77.7113 226.522 77.5484 227.495 77.5838L229.864 77.67C231.676 77.7359 237.468 78.4767 238.712 79.6727C239.342 80.2994 239.819 81.0634 240.106 81.9049C240.393 82.7464 240.481 83.6428 240.364 84.524C240.131 86.5014 240.755 88.2474 242.422 89.7114C245.613 93.0111 246.929 96.4349 245.12 100.066C243.754 103.909 243.819 107.073 247.342 108.594C248.486 112.984 241.045 117.272 236.508 117.272Z" fill="#2F2E41"/>
<path d="M201.411 138.392C202.353 137.521 201.676 135.257 199.898 133.336C198.121 131.415 195.917 130.563 194.976 131.434C194.034 132.305 194.711 134.569 196.489 136.49C198.266 138.411 200.469 139.263 201.411 138.392Z" fill="#3F3D56"/>
<path d="M207.63 123.447C211.392 123.447 214.443 120.397 214.443 116.634C214.443 112.871 211.392 109.821 207.63 109.821C203.867 109.821 200.817 112.871 200.817 116.634C200.817 120.397 203.867 123.447 207.63 123.447Z" fill="#00CE5A"/>
<path d="M219.071 160.049C216.015 158.664 213.169 156.859 210.616 154.684C205.46 150.226 201.716 143.829 201.437 136.915C201.17 130.28 203.982 124.042 206.956 118.276C207.33 117.55 207.708 116.827 208.09 116.106C208.235 115.83 208.685 116.015 208.539 116.292C205.454 122.148 202.216 128.336 201.924 135.088C201.615 142.205 205.092 148.989 210.267 153.724C212.936 156.127 215.959 158.104 219.23 159.587" fill="#3F3D56"/>
<path d="M205.029 116.448L204.713 116.521L205.739 120.962L206.055 120.889L205.029 116.448Z" fill="#3F3D56"/>
<path d="M209.711 152.704C210.984 152.545 211.752 150.31 211.427 147.713C211.102 145.117 209.807 143.141 208.534 143.3C207.261 143.459 206.493 145.694 206.818 148.29C207.143 150.887 208.439 152.863 209.711 152.704Z" fill="#3F3D56"/>
<path d="M217.244 152.109L216.568 157.112C216.503 157.594 216.332 158.057 216.066 158.465C215.801 158.874 215.448 159.218 215.033 159.474C214.618 159.73 214.152 159.891 213.668 159.945C213.184 159.998 212.693 159.944 212.233 159.786C211.761 159.623 211.331 159.356 210.978 159.003C210.624 158.651 210.355 158.223 210.192 157.751C210.028 157.279 209.973 156.776 210.032 156.281C210.091 155.785 210.262 155.309 210.532 154.889L212.632 151.623L219.187 126.861L219.915 109.867L226.47 110.353L225.499 129.774L217.244 152.109Z" fill="#FFB9B9"/>
<path d="M227.319 113.509C224.061 112.107 220.557 112.176 216.88 113.266L219.308 103.919C219.308 102.857 219.73 101.838 220.481 101.087C221.232 100.336 222.251 99.9137 223.314 99.9137C224.376 99.9137 225.395 100.336 226.146 101.087C226.897 101.838 227.319 102.857 227.319 103.919V113.509Z" fill="#2F2E41"/>
</g>
<defs>
<clipPath id="clip0">
<rect width="280" height="227.129" fill="white"/>
</clipPath>
</defs>
</svg>
