<svg width="64" height="68" viewBox="0 0 64 68" fill="none" xmlns="http://www.w3.org/2000/svg">
<path d="M14 0.680604C18.2526 0.67943 22.4246 1.84291 26.0653 4.04529C29.7059 6.24768 32.6767 9.40523 34.6566 13.1767C36.6568 10.3444 39.3062 8.03455 42.3821 6.44133C45.4581 4.84811 48.8707 4.01806 52.3333 4.02091H64V12.3717C64 18.1301 61.7172 23.6526 57.6539 27.7244C53.5906 31.7962 48.0796 34.0837 42.3333 34.0837H37.3333V37.424H54V60.8062C54 62.578 53.2976 64.2773 52.0473 65.5301C50.7971 66.783 49.1014 67.4868 47.3333 67.4868H20.6666C18.8985 67.4868 17.2028 66.783 15.9526 65.5301C14.7023 64.2773 14 62.578 14 60.8062V37.424H30.6666V30.7434H24C17.8116 30.7434 11.8766 28.2799 7.5008 23.8949C3.12495 19.5099 0.666626 13.5626 0.666626 7.36123V0.680604H14ZM47.3333 44.1046H20.6666V60.8062H47.3333V44.1046ZM57.3333 10.7015H52.3333C48.355 10.7015 44.5397 12.2852 41.7267 15.1041C38.9136 17.9231 37.3333 21.7464 37.3333 25.7329V27.4031H42.3333C44.3031 27.4031 46.2537 27.0143 48.0735 26.2589C49.8934 25.5035 51.547 24.3963 52.9399 23.0005C54.3328 21.6047 55.4377 19.9477 56.1915 18.124C56.9453 16.3003 57.3333 14.3456 57.3333 12.3717V10.7015ZM14 7.36123H7.33329C7.33329 11.7908 9.08924 16.0389 12.2148 19.171C15.3405 22.3032 19.5797 24.0628 24 24.0628H30.6666C30.6666 19.6333 28.9107 15.3851 25.7851 12.253C22.6595 9.12085 18.4202 7.36123 14 7.36123Z" fill="url(#paint0_linear)"/>
<defs>
<linearGradient id="paint0_linear" x1="17.523" y1="0.680604" x2="111.826" y2="53.9259" gradientUnits="userSpaceOnUse">
<stop stop-color="#38EF7D"/>
<stop offset="0.484375" stop-color="#23C086"/>
<stop offset="1" stop-color="#11998E"/>
</linearGradient>
</defs>
</svg>
