<svg width="26" height="28" viewBox="0 0 26 28" fill="none" xmlns="http://www.w3.org/2000/svg">
<path d="M5.99984 0.672242C7.70088 0.671772 9.3697 1.13716 10.826 2.01812C12.2822 2.89907 13.4705 4.16209 14.2625 5.67068C15.0626 4.53775 16.1223 3.61382 17.3527 2.97653C18.5831 2.33925 19.9481 2.00722 21.3332 2.00837H25.9998V5.34868C25.9998 7.65203 25.0867 9.86105 23.4614 11.4898C21.8361 13.1185 19.6317 14.0335 17.3332 14.0335H15.3332V15.3696H21.9998V24.7225C21.9998 25.4312 21.7189 26.1109 21.2188 26.612C20.7187 27.1132 20.0404 27.3947 19.3332 27.3947H8.6665C7.95926 27.3947 7.28098 27.1132 6.78088 26.612C6.28079 26.1109 5.99984 25.4312 5.99984 24.7225V15.3696H12.6665V12.6974H9.99984C7.52448 12.6974 5.15051 11.712 3.40017 9.95797C1.64983 8.20396 0.666504 5.82503 0.666504 3.34449V0.672242H5.99984ZM19.3332 18.0419H8.6665V24.7225H19.3332V18.0419ZM23.3332 4.68061H21.3332C19.7419 4.68061 18.2157 5.31408 17.0905 6.44165C15.9653 7.56923 15.3332 9.09855 15.3332 10.6932V11.3612H17.3332C18.1211 11.3612 18.9013 11.2057 19.6293 10.9036C20.3572 10.6014 21.0187 10.1585 21.5758 9.6002C22.133 9.04188 22.5749 8.37906 22.8764 7.64958C23.178 6.92011 23.3332 6.13826 23.3332 5.34868V4.68061ZM5.99984 3.34449H3.33317C3.33317 5.1163 4.03555 6.81554 5.28579 8.0684C6.53603 9.32126 8.23173 10.0251 9.99984 10.0251H12.6665C12.6665 8.2533 11.9641 6.55406 10.7139 5.3012C9.46364 4.04834 7.76795 3.34449 5.99984 3.34449Z" fill="url(#paint0_linear)"/>
<defs>
<linearGradient id="paint0_linear" x1="7.40907" y1="0.672242" x2="45.1302" y2="21.9704" gradientUnits="userSpaceOnUse">
<stop stop-color="#38EF7D"/>
<stop offset="0.484375" stop-color="#23C086"/>
<stop offset="1" stop-color="#11998E"/>
</linearGradient>
</defs>
</svg>
