<svg width="21" height="18" viewBox="0 0 21 18" fill="none" xmlns="http://www.w3.org/2000/svg">
<path d="M17 5.99998C16.3811 6.00171 15.7778 6.19485 15.2729 6.55291C14.7681 6.91097 14.3863 7.41643 14.18 7.99998H1C0.734784 7.99998 0.48043 8.10533 0.292893 8.29287C0.105357 8.4804 0 8.73476 0 8.99998C0 9.26519 0.105357 9.51955 0.292893 9.70708C0.48043 9.89462 0.734784 9.99998 1 9.99998H14.18C14.3635 10.5189 14.6861 10.9773 15.1126 11.325C15.5392 11.6728 16.0532 11.8966 16.5984 11.9718C17.1435 12.047 17.6989 11.9708 18.2037 11.7516C18.7085 11.5323 19.1432 11.1784 19.4603 10.7286C19.7775 10.2788 19.9647 9.75039 20.0017 9.20127C20.0386 8.65216 19.9238 8.10347 19.6697 7.61525C19.4157 7.12703 19.0323 6.7181 18.5614 6.4332C18.0905 6.14831 17.5504 5.99843 17 5.99998ZM1 3.99998H2.18C2.3902 4.57913 2.77363 5.07951 3.27817 5.43313C3.7827 5.78675 4.38388 5.97645 5 5.97645C5.61612 5.97645 6.2173 5.78675 6.72184 5.43313C7.22637 5.07951 7.6098 4.57913 7.82 3.99998H19C19.2652 3.99998 19.5196 3.89462 19.7071 3.70708C19.8946 3.51955 20 3.26519 20 2.99998C20 2.73476 19.8946 2.48041 19.7071 2.29287C19.5196 2.10533 19.2652 1.99998 19 1.99998H7.82C7.6098 1.42082 7.22637 0.920435 6.72184 0.566817C6.2173 0.213198 5.61612 0.0234985 5 0.0234985C4.38388 0.0234985 3.7827 0.213198 3.27817 0.566817C2.77363 0.920435 2.3902 1.42082 2.18 1.99998H1C0.734784 1.99998 0.48043 2.10533 0.292893 2.29287C0.105357 2.48041 0 2.73476 0 2.99998C0 3.26519 0.105357 3.51955 0.292893 3.70708C0.48043 3.89462 0.734784 3.99998 1 3.99998ZM19 14H11.82C11.6098 13.4208 11.2264 12.9204 10.7218 12.5668C10.2173 12.2132 9.61612 12.0235 9 12.0235C8.38388 12.0235 7.7827 12.2132 7.27816 12.5668C6.77363 12.9204 6.3902 13.4208 6.18 14H1C0.734784 14 0.48043 14.1053 0.292893 14.2929C0.105357 14.4804 0 14.7348 0 15C0 15.2652 0.105357 15.5195 0.292893 15.7071C0.48043 15.8946 0.734784 16 1 16H6.18C6.3902 16.5791 6.77363 17.0795 7.27816 17.4331C7.7827 17.7868 8.38388 17.9765 9 17.9765C9.61612 17.9765 10.2173 17.7868 10.7218 17.4331C11.2264 17.0795 11.6098 16.5791 11.82 16H19C19.2652 16 19.5196 15.8946 19.7071 15.7071C19.8946 15.5195 20 15.2652 20 15C20 14.7348 19.8946 14.4804 19.7071 14.2929C19.5196 14.1053 19.2652 14 19 14Z" fill="black"/>
</svg>
