<svg width="20" height="20" viewBox="0 0 20 20" fill="none" xmlns="http://www.w3.org/2000/svg">
<path d="M10 15C11.3261 15 12.5979 14.4732 13.5355 13.5355C14.4732 12.5979 15 11.3261 15 10C15 8.67392 14.4732 7.40215 13.5355 6.46447C12.5979 5.52678 11.3261 5 10 5C8.67392 5 7.40215 5.52678 6.46447 6.46447C5.52678 7.40215 5 8.67392 5 10C5 11.3261 5.52678 12.5979 6.46447 13.5355C7.40215 14.4732 8.67392 15 10 15ZM10 0C10.1658 0 10.3247 0.065848 10.4419 0.183058C10.5592 0.300269 10.625 0.45924 10.625 0.625V3.125C10.625 3.29076 10.5592 3.44973 10.4419 3.56694C10.3247 3.68415 10.1658 3.75 10 3.75C9.83424 3.75 9.67527 3.68415 9.55806 3.56694C9.44085 3.44973 9.375 3.29076 9.375 3.125V0.625C9.375 0.45924 9.44085 0.300269 9.55806 0.183058C9.67527 0.065848 9.83424 0 10 0V0ZM10 16.25C10.1658 16.25 10.3247 16.3158 10.4419 16.4331C10.5592 16.5503 10.625 16.7092 10.625 16.875V19.375C10.625 19.5408 10.5592 19.6997 10.4419 19.8169C10.3247 19.9342 10.1658 20 10 20C9.83424 20 9.67527 19.9342 9.55806 19.8169C9.44085 19.6997 9.375 19.5408 9.375 19.375V16.875C9.375 16.7092 9.44085 16.5503 9.55806 16.4331C9.67527 16.3158 9.83424 16.25 10 16.25ZM20 10C20 10.1658 19.9342 10.3247 19.8169 10.4419C19.6997 10.5592 19.5408 10.625 19.375 10.625H16.875C16.7092 10.625 16.5503 10.5592 16.4331 10.4419C16.3158 10.3247 16.25 10.1658 16.25 10C16.25 9.83424 16.3158 9.67527 16.4331 9.55806C16.5503 9.44085 16.7092 9.375 16.875 9.375H19.375C19.5408 9.375 19.6997 9.44085 19.8169 9.55806C19.9342 9.67527 20 9.83424 20 10ZM3.75 10C3.75 10.1658 3.68415 10.3247 3.56694 10.4419C3.44973 10.5592 3.29076 10.625 3.125 10.625H0.625C0.45924 10.625 0.300269 10.5592 0.183058 10.4419C0.065848 10.3247 0 10.1658 0 10C0 9.83424 0.065848 9.67527 0.183058 9.55806C0.300269 9.44085 0.45924 9.375 0.625 9.375H3.125C3.29076 9.375 3.44973 9.44085 3.56694 9.55806C3.68415 9.67527 3.75 9.83424 3.75 10ZM17.0712 2.92875C17.1884 3.04595 17.2542 3.2049 17.2542 3.37063C17.2542 3.53635 17.1884 3.6953 17.0712 3.8125L15.3038 5.58125C15.2456 5.63928 15.1767 5.68529 15.1008 5.71666C15.0249 5.74804 14.9436 5.76416 14.8614 5.7641C14.6956 5.76398 14.5366 5.69798 14.4194 5.58063C14.3613 5.52251 14.3153 5.45355 14.284 5.37765C14.2526 5.30176 14.2365 5.22043 14.2365 5.13831C14.2366 4.97246 14.3026 4.81344 14.42 4.69625L16.1875 2.92875C16.3047 2.81158 16.4636 2.74576 16.6294 2.74576C16.7951 2.74576 16.954 2.81158 17.0712 2.92875ZM5.58 14.42C5.69717 14.5372 5.76299 14.6961 5.76299 14.8619C5.76299 15.0276 5.69717 15.1865 5.58 15.3038L3.8125 17.0712C3.69462 17.1851 3.53675 17.2481 3.37287 17.2467C3.209 17.2452 3.05224 17.1795 2.93636 17.0636C2.82048 16.9478 2.75475 16.791 2.75333 16.6271C2.7519 16.4633 2.8149 16.3054 2.92875 16.1875L4.69625 14.42C4.81345 14.3028 4.9724 14.237 5.13812 14.237C5.30385 14.237 5.4628 14.3028 5.58 14.42ZM17.0712 17.0712C16.954 17.1884 16.7951 17.2542 16.6294 17.2542C16.4636 17.2542 16.3047 17.1884 16.1875 17.0712L14.42 15.3038C14.3062 15.1859 14.2432 15.028 14.2446 14.8641C14.246 14.7003 14.3117 14.5435 14.4276 14.4276C14.5435 14.3117 14.7003 14.246 14.8641 14.2446C15.028 14.2432 15.1859 14.3062 15.3038 14.42L17.0712 16.1875C17.1884 16.3047 17.2542 16.4636 17.2542 16.6294C17.2542 16.7951 17.1884 16.954 17.0712 17.0712ZM5.58 5.58125C5.4628 5.69842 5.30385 5.76424 5.13812 5.76424C4.9724 5.76424 4.81345 5.69842 4.69625 5.58125L2.92875 3.8125C2.86906 3.75485 2.82144 3.68588 2.78869 3.60963C2.75593 3.53338 2.73869 3.45136 2.73797 3.36838C2.73725 3.28539 2.75306 3.20309 2.78449 3.12628C2.81591 3.04947 2.86232 2.97969 2.921 2.921C2.97969 2.86232 3.04947 2.81591 3.12628 2.78449C3.20309 2.75306 3.28539 2.73725 3.36838 2.73797C3.45136 2.73869 3.53338 2.75593 3.60963 2.78869C3.68588 2.82144 3.75485 2.86906 3.8125 2.92875L5.58 4.69625C5.6382 4.75431 5.68438 4.82328 5.71589 4.89921C5.7474 4.97514 5.76362 5.05654 5.76362 5.13875C5.76362 5.22096 5.7474 5.30236 5.71589 5.37829C5.68438 5.45422 5.6382 5.52319 5.58 5.58125Z" fill="#E45200"/>
</svg>
