<svg width="140" height="140" viewBox="0 0 140 140" fill="none" xmlns="http://www.w3.org/2000/svg">
<circle cx="70" cy="70" r="70" fill="#EFEFEF"/>
<path d="M70 63.875C66.6802 63.875 63.875 66.6802 63.875 70C63.875 73.3198 66.6802 76.125 70 76.125C73.3198 76.125 76.125 73.3198 76.125 70C76.125 66.6802 73.3198 63.875 70 63.875Z" fill="#A8A8A8"/>
<path d="M86.3333 55.7083H81.0535L75.5267 50.1815C75.3374 49.9916 75.1125 49.8409 74.8647 49.7383C74.617 49.6356 74.3514 49.5829 74.0833 49.5833H65.9166C65.6484 49.5829 65.3828 49.6356 65.1351 49.7383C64.8874 49.8409 64.6624 49.9916 64.4731 50.1815L58.9463 55.7083H53.6666C51.4146 55.7083 49.5833 57.5397 49.5833 59.7917V82.25C49.5833 84.502 51.4146 86.3333 53.6666 86.3333H86.3333C88.5852 86.3333 90.4166 84.502 90.4166 82.25V59.7917C90.4166 57.5397 88.5852 55.7083 86.3333 55.7083ZM69.9999 80.2083C64.467 80.2083 59.7916 75.5329 59.7916 70C59.7916 64.4671 64.467 59.7917 69.9999 59.7917C75.5328 59.7917 80.2083 64.4671 80.2083 70C80.2083 75.5329 75.5328 80.2083 69.9999 80.2083Z" fill="#A8A8A8"/>
</svg>
